<?xml version="1.0" encoding="utf-8"?>
<!-- Generator: Adobe Illustrator 26.0.3, SVG Export Plug-In . SVG Version: 6.00 Build 0)  -->
<svg version="1.1" id="Complete_Logo" xmlns="http://www.w3.org/2000/svg" xmlns:xlink="http://www.w3.org/1999/xlink" x="0px"
	 y="0px" width="573.6px" height="333.3px" viewBox="0 0 573.6 333.3" style="enable-background:new 0 0 573.6 333.3;"
	 xml:space="preserve">
<style type="text/css">
	.st0{fill:#CFDDCA;}
</style>
<g>
	<path class="st0" d="M566.4,191.7l-0.2,0.7c0.3-2,0-4.1-1-6c-1.2-2.1-3-3.6-4.9-5.1c-20.6-16.3-48.5-27.8-74.2-33.1
		c-23-4.8-48.4-4.1-68.6,9.4c-3,2-5.9,4.3-8.6,6.8c-4.9,4.6-9.1,10.1-12.5,15.9c-0.3,0.5-0.5,1-0.8,1.4c-4.3,7.8-7.3,16.4-9,25.1
		c-0.3,1.4-0.7,3.4-1,5.6c0.1-7.7,1.3-15.3,2.8-22.2c8.4-35.1,32.2-60.1,65.5-69.8c17-4.9,35.4-4.9,54.4-1.8
		c-17.8-11.3-39.4-16.1-59.5-13.8c-42.4,4.3-68.5,40.1-69,82.8c-0.2,13.4,0.5,28.5,6,41.8c-28.1-26.6-22.1-75.4-5-107.2
		c21.3-39.4,70.8-59.2,113.8-48.7C545.4,86.1,583.4,139.8,566.4,191.7L566.4,191.7z"/>
	<path class="st0" d="M346.6,332.9l1.6,0.4c29.7-128.5,2.5-205-96-226.4c-70.2-15.3-134.2,6-188.4-5.8
		c-28.7-6.3-45.1-19.9-51.8-40.2c4.8,33.6,18.7,65.9,50.6,79.9c14.3,6.6,30.4,8,46.1,9.4c16.3,1.4,32.6,1.9,49,1.6
		c50.2-0.6,103.4-10.5,146.3,22.8c-15.1-7.1-30.9-12.2-47.1-13.7c-16.1-1.8-32.4-0.4-48.8,1.1c-33.1,3.7-67.2,6.4-100.7,3.4
		c-26.2-1.6-53.9-7.6-73.2-26.7C3.2,108.1,0.3,57.4,9.9,17l-1.5-0.3c-25.8,78.7,8.5,178.1,92.6,196.5
		c56.6,12.4,126.8-13.6,192.1,0.6C337.8,223.5,360.8,248.3,346.6,332.9L346.6,332.9z"/>
</g>
<path class="st0" d="M335.7,79.1c20.8,0,37.5-16.7,37.5-37.8S356.6,3.8,335.7,3.8s-37.8,16.7-37.8,37.5S314.7,79.1,335.7,79.1z"/>
</svg>
