<?xml version="1.0" encoding="UTF-8"?>
<svg id="Complete_Logo" data-name="Complete Logo" xmlns="http://www.w3.org/2000/svg" viewBox="0 0 573.56 333.3">
  <defs>
    <style>
      .cls-1 {
        fill: #282b21;
        stroke-width: 0px;
      }
    </style>
  </defs>
  <g>
    <path class="cls-1" d="m566.42,191.66l-.24.73c.29-1.98,0-4.14-1.03-5.96-1.18-2.06-3.02-3.65-4.88-5.12-20.63-16.32-48.55-27.75-74.25-33.06-23.03-4.76-48.44-4.14-68.57,9.36-3.04,2.04-5.91,4.33-8.57,6.84-4.93,4.63-9.1,10.05-12.46,15.91-.27.48-.54.96-.81,1.44-4.28,7.83-7.33,16.35-8.95,25.12-.26,1.41-.66,3.4-1.04,5.63.07-7.71,1.27-15.32,2.8-22.23,8.4-35.13,32.21-60.13,65.51-69.79,16.99-4.94,35.44-4.95,54.4-1.76-17.82-11.34-39.4-16.06-59.45-13.77-42.39,4.26-68.53,40.07-69.04,82.85-.25,13.36.55,28.47,6.01,41.84-28.13-26.57-22.14-75.35-4.95-107.19,21.27-39.4,70.83-59.24,113.81-48.74,50.7,12.39,88.72,66.03,71.71,117.89Z"/>
    <path class="cls-1" d="m346.64,332.94l1.64.36c29.74-128.53,2.55-204.97-95.96-226.45-70.19-15.3-134.17,6.01-188.35-5.81-28.72-6.26-45.09-19.9-51.78-40.24,4.84,33.62,18.73,65.91,50.59,79.87,14.33,6.58,30.43,8.02,46.09,9.39,16.28,1.39,32.61,1.86,49.02,1.65,50.17-.6,103.36-10.48,146.33,22.82-15.14-7.1-30.93-12.18-47.09-13.69-16.13-1.75-32.39-.44-48.83,1.08-33.13,3.69-67.2,6.44-100.71,3.44-26.19-1.61-53.88-7.57-73.24-26.73C3.21,108.13.29,57.4,9.93,17.03l-1.54-.34c-25.75,78.66,8.46,178.14,92.61,196.48,56.64,12.35,126.8-13.63,192.07.6,44.74,9.75,67.71,34.54,53.56,119.17Z"/>
  </g>
  <path class="cls-1" d="m335.73,79.14c20.83,0,37.55-16.72,37.55-37.79S356.56,3.8,335.73,3.8s-37.79,16.72-37.79,37.55,16.72,37.79,37.79,37.79Z"/>
</svg>