<svg xmlns="http://www.w3.org/2000/svg" viewBox="0 0 654.58 703.18"><defs><style>.cls-1{fill:#cfddca;}</style></defs><g id="Complete_Logo" data-name="Complete Logo"><path class="cls-1" d="M643.57,55.18C613.69,37.17,581,24.25,548,15.24A432.21,432.21,0,0,0,410.24.67C133.59,16.08-64.46,292.86,19.47,559c15.18,48.1,38.64,94,70.25,134,8.19-52,36.06-110.16,75.47-142.82-2.93,47.86-27.28,109.94-54,153,4.74-1.07,9.48-2.19,13.94-3.34,26-6.51,52.13-14,77-21.53,19.77-6.16,41.23-12.9,60.23-19.52,86.6-30.64,157.11-58.74,222-113.49,105-90.64,133.77-226,155.27-362.15,5.91-39.63,10.85-80.23,14.92-120.7C651.78,60.34,646.44,57.05,643.57,55.18Z"/></g></svg>