<?xml version="1.0" encoding="utf-8"?>
<!-- Generator: Adobe Illustrator 26.0.3, SVG Export Plug-In . SVG Version: 6.00 Build 0)  -->
<svg version="1.1" id="Layer_1" xmlns="http://www.w3.org/2000/svg" xmlns:xlink="http://www.w3.org/1999/xlink" x="0px" y="0px"
	 width="654.6px" height="703.2px" viewBox="0 0 654.6 703.2" style="enable-background:new 0 0 654.6 703.2;" xml:space="preserve"
	>
<style type="text/css">
	.st0{fill:#F3F5EE;}
</style>
<g id="Complete_Logo">
	<path class="st0" d="M643.6,55.2c-29.9-18-62.6-30.9-95.6-39.9C503.2,3,456.6-1.9,410.2,0.7C133.6,16.1-64.5,292.9,19.5,559
		c15.2,48.1,38.6,94,70.2,134c8.2-52,36.1-110.2,75.5-142.8c-2.9,47.9-27.3,109.9-54,153c4.7-1.1,9.5-2.2,13.9-3.3
		c26-6.5,52.1-14,77-21.5c19.8-6.2,41.2-12.9,60.2-19.5c86.6-30.6,157.1-58.7,222-113.5c105-90.6,133.8-226,155.3-362.2
		c5.9-39.6,10.8-80.2,14.9-120.7C651.8,60.3,646.4,57,643.6,55.2z"/>
</g>
</svg>
