<?xml version="1.0" encoding="utf-8"?>
<!-- Generator: Adobe Illustrator 26.0.3, SVG Export Plug-In . SVG Version: 6.00 Build 0)  -->
<svg version="1.1" xmlns="http://www.w3.org/2000/svg" xmlns:xlink="http://www.w3.org/1999/xlink" x="0px" y="0px"
	 width="1348.28px" height="338.59px" viewBox="0 0 1348.28 338.59" style="enable-background:new 0 0 1348.28 338.59;"
	 xml:space="preserve">
<style type="text/css">
	.st0{fill:#282B21;}
	.st1{fill:#FFFFFF;}
	.st2{fill:#75AE9C;stroke:#81897E;stroke-width:50.2081;stroke-linecap:round;stroke-linejoin:round;stroke-miterlimit:10;}
	.st3{fill:#DEEDDC;}
	.st4{fill:#9AAA6C;}
	.st5{fill:#75AE9C;}
	.st6{fill:#81897E;}
	.st7{fill:#CFDDCA;}
	.st8{fill:#F3F5EE;}
	.st9{fill:url(#);}
	.st10{clip-path:url(#SVGID_00000026852334162809056130000008952621409157913518_);}
	.st11{clip-path:url(#SVGID_00000111909957009467483810000009630291695590318738_);}
	.st12{clip-path:url(#SVGID_00000129904580842668306050000001517958390639044266_);}
	.st13{clip-path:url(#SVGID_00000112592616170566920970000006736858998445556415_);}
	.st14{clip-path:url(#XMLID_00000088125127025884232710000008672623793363174330_);fill:#DEEDDC;}
	.st15{clip-path:url(#XMLID_00000139993902047078493190000013424381881498022816_);fill:#DEEDDC;}
	.st16{clip-path:url(#XMLID_00000027596074260608461850000012115474067466108858_);}
	.st17{clip-path:url(#XMLID_00000027596074260608461850000012115474067466108858_);fill:#DEEDDC;}
	.st18{clip-path:url(#XMLID_00000031910672106135828480000011107539841947394966_);}
	.st19{clip-path:url(#XMLID_00000031910672106135828480000011107539841947394966_);fill:#DEEDDC;}
	.st20{clip-path:url(#SVGID_00000082356842818268418090000009252409067450723732_);}
	.st21{clip-path:url(#SVGID_00000082356842818268418090000009252409067450723732_);fill:#DEEDDC;}
	.st22{clip-path:url(#SVGID_00000161616256095879844590000009556264220486600382_);}
	.st23{clip-path:url(#SVGID_00000161616256095879844590000009556264220486600382_);fill:#DEEDDC;}
</style>
<g id="Layer_1">
</g>
<g id="Isolation_Mode">
</g>
<g id="Background">
</g>
<g id="Complete_Logo">
	<path class="st3" d="M1178.98,338.59H169.29C75.8,338.59,0,262.79,0,169.29v0C0,75.8,75.8,0,169.29,0l1009.69,0
		c93.5,0,169.29,75.8,169.29,169.29v0C1348.28,262.79,1272.48,338.59,1178.98,338.59z"/>
	<g>
		<path class="st0" d="M1036.31,268.75v0.55h71.19v-0.55c-12.3-2.73-20.22-10.93-20.22-24.6V130.6
			c-16.81,6.42-32.66,10.8-52.2,14.89v0.55c12.3,2.05,18.72,9.02,18.72,25.69v72.42C1053.8,257.82,1047.24,266.01,1036.31,268.75z
			 M1147.48,195.95c-0.07,0.04-0.14,0.08-0.22,0.12c0.5-0.42,0.9-1,1.04-1.67c0.16-0.75,0.06-1.54-0.08-2.3
			c-1.47-8.43-5.77-17.25-10.85-24.11c-4.56-6.15-10.86-11.5-18.67-12.58c-1.18-0.16-2.37-0.23-3.56-0.2
			c-2.2,0.06-4.38,0.47-6.47,1.16c-0.17,0.06-0.34,0.11-0.51,0.17c-2.73,0.97-5.32,2.38-7.61,4.16c-0.37,0.29-0.9,0.68-1.47,1.14
			c1.69-1.86,3.63-3.44,5.5-4.79c9.65-6.7,20.84-7.61,31.01-2.74c5.19,2.48,9.67,6.48,13.58,11.36
			c-1.87-6.61-6.08-12.43-11.44-16.22c-11.21-8.15-25.31-5.12-34.7,5.15c-2.96,3.19-6.04,7.03-7.61,11.46
			c-1.07-12.54,10.95-23.08,22.02-27.08c13.69-4.95,30.02,0.97,38.17,12.83C1165.23,165.8,1162.84,187.05,1147.48,195.95z"/>
		<path class="st0" d="M406.82,145.35c12.3,2.05,18.72,9.02,18.72,25.69v73.11c0,13.66-6.56,21.86-17.49,24.6v0.55h67.78v-0.55
			c-10.93-2.73-17.49-10.93-17.49-24.6V129.91c-16.81,6.42-31.98,10.8-51.52,14.89V145.35z M440.17,107.78
			c11.75,0,21.18-9.43,21.18-21.32c0-11.75-9.43-21.18-21.18-21.18c-11.89,0-21.32,9.43-21.32,21.18
			C418.85,98.35,428.28,107.78,440.17,107.78z"/>
		<path class="st0" d="M630.76,151.23l0.27,0.55c5.74-4.65,14.62-10.52,25.01-10.52c13.25,0,19.13,9.7,19.13,32.8
			c0,21.73-1.23,43.18-1.23,64.91c0,17.22,3.01,31.43,23.37,31.43c13.66,0,25.69-4.65,33.62-10.79l-0.27-0.55
			c-16.26,6.97-23.23-3.01-23.23-23.64c0-23.78,1.23-42.22,1.23-63.54c0-29.38-13.66-40.31-33.89-40.31
			C656.04,131.55,640.87,140.44,630.76,151.23z M546.04,149.45l0.27,0.55c4.51-2.87,13.39-8.75,23.78-8.75
			c12.71,0,18.99,10.39,18.99,32.8c0,21.73,0.27,42.91,0.27,70.1c0,13.66-6.56,21.86-17.49,24.6v0.55h67.78v-0.55
			c-10.93-2.73-17.49-10.93-17.49-24.6v-72.29c0-29.38-13.66-40.31-33.89-40.31C570.91,131.55,554.92,140.44,546.04,149.45z
			 M483.32,268.75v0.55h67.78v-0.55c-10.93-2.73-17.49-10.93-17.49-24.6V130.6c-16.81,6.42-31.98,10.8-51.52,14.89v0.55
			c12.3,2.05,18.72,9.02,18.72,25.69v72.42C500.81,257.82,494.25,266.01,483.32,268.75z"/>
		<g>
			<path class="st0" d="M274.67,71.7v-0.55c-42.91-0.55-65.32,13.39-65.32,46.19c0,23.37,11.21,42.22,11.21,60.26
				c0,9.56-3.2,15.71-9.2,19.24c10.35-3.87,19.65-10.52,21.88-21.61c1.1-5.01,0.44-10.23-0.21-15.3
				c-0.68-5.27-1.67-10.49-2.87-15.69c-3.67-15.9-10.49-32.12-2.89-48.08c-1.21,5.3-1.73,10.67-1.09,15.91
				c0.56,5.25,2.11,10.33,3.73,15.44c3.47,10.27,6.7,20.91,8.07,31.77c1.3,8.43,1.33,17.65-3.42,25.13
				c-7.53,12.01-23.45,16.45-36.95,16.19v0.51c26.78,2.73,56.03-15.03,56.03-43.04c0-18.86-13.12-39.35-13.12-61.08
				C240.51,82.09,246.8,73.07,274.67,71.7z"/>
			<path class="st0" d="M392.46,70.2l-0.55-0.27c-10.52,2.05-32.39,2.32-49.6,1.23v0.55c21.32,8.06,39.49,34.3,51.79,76.93
				l0.55-0.27C390.82,107.5,390.68,84.55,392.46,70.2z"/>
			<path class="st0" d="M326.32,244.01V90.97c0-12.3,0.96-17.9,2.32-19.27v-0.55h-39.49v0.55c1.37,1.37,2.32,6.97,2.32,19.27v153.04
				c0,13.66-6.42,22-17.35,24.73v0.55h69.55v-0.55C332.75,266.01,326.32,257.68,326.32,244.01z"/>
		</g>
		<g>
			<path class="st0" d="M781.22,250.98V50.66c-16.81,6.42-31.98,10.79-51.52,14.89v0.55c12.3,2.05,18.72,9.02,18.72,25.69v152.36
				c0,13.66-6.56,21.86-17.49,24.6v0.55h56.85v-0.55C783.68,266.01,781.22,260.55,781.22,250.98z"/>
			<path class="st0" d="M793.8,263.01c4.65,2.87,12.57,6.97,26.51,6.97c37.71,0,60.26-30.34,60.26-72.56
				c0-40.45-22.27-65.45-51.24-65.45c-14.62,0-27.06,6.42-34.44,14.76l0.27,0.55c4.51-3.83,10.25-7.52,17.35-7.52
				c18.17,0,31.43,23.91,31.43,58.21c0,33.61-12.98,66.82-38.94,66.82c-4.56,0-8.07-1.06-10.78-2.26
				c6.77-7.61,18.18-19.63,23.91-27.37c7.79-10.24,14.38-21.48,18.6-33.95c-0.08-0.02-0.15-0.03-0.23-0.04
				c-11.25,9.93-23.02,20.43-32.39,31.96c-1.57,1.75-2.94,3.71-4.53,5.46c0.29-1.16,0.65-2.31,1.02-3.46
				c5.22-14.84,18.96-28.22,33.76-34.34c-14.78-2.07-29.48,5.72-38.47,17.36C786.13,230.48,782.65,250.4,793.8,263.01"/>
		</g>
		<g>
			<path class="st0" d="M977.85,265.74c-28.97,0-43.32-28.83-43.59-68.05c-0.14-34.3,11.48-62.58,26.78-65.59v-0.55
				c-37.44,1.37-64.36,31.98-63.4,73.79c0.96,41.13,28.83,64.77,68.46,65.04c37.99,0.27,54.66-24.19,58.07-36.07l-0.55-0.14
				C1017.62,248.52,1000.13,265.74,977.85,265.74z"/>
			<path class="st0" d="M980.69,155.39c-0.92-3.13-2.3-5.94-4.62-8.35l-10.79,11.44c-9.51,10.04-17.15,21.39-21.44,34.87
				c3.89-4,8.87-8.51,12.62-12.1c4.89-4.51,9.17-9.05,14.15-13.66c-2.6,11.82-13.46,22.56-25.07,26.48c0.61,0.11,1.4,0.19,2.4,0.2
				v0.01l0.2,0c0,0,0,0,0,0l0,0l78.64-0.68c-0.96-34.44-21.18-60.4-53.43-62.04v0.55c10.25,3.83,17.76,18.17,18.17,35.94
				c0.25,15.57-5.25,21.79-33.13,24.78C973.41,187.99,984.99,171.34,980.69,155.39z"/>
		</g>
	</g>
</g>
<g id="pattern">
</g>
<g id="social_media">
</g>
<g id="logos">
</g>
<g id="Filled">
</g>
</svg>
