<svg xmlns="http://www.w3.org/2000/svg" xmlns:xlink="http://www.w3.org/1999/xlink" viewBox="0 0 2235.87 446.41"><defs><style>.cls-1{fill:none;}.cls-2{fill:#282b21;}.cls-3{clip-path:url(#clip-path);}.cls-4{fill:#deeddc;}.cls-5{clip-path:url(#clip-path-2);}</style><clipPath id="clip-path"><rect class="cls-1" x="1263.58" y="-4031.14" width="1571.9" height="1578.59"/></clipPath><clipPath id="clip-path-2"><rect class="cls-1" x="2835.48" y="-4031.14" width="1571.9" height="1578.59"/></clipPath></defs><g id="Complete_Logo" data-name="Complete Logo"><path class="cls-2" d="M1725.88,116.55a20.81,20.81,0,0,0-3.39.16.93.93,0,0,0-.78.83l-2.51,12.16v.11c0,.52.82.78,2.45.78a12.19,12.19,0,0,0,4.6-.89,9,9,0,0,0,3.75-3.08,8.44,8.44,0,0,0,1.62-5.16Q1731.62,116.56,1725.88,116.55Zm.84-1.93a12.32,12.32,0,0,1,3,.37,11.19,11.19,0,0,1,3,1.09,6,6,0,0,1,2.45,2.19,6.32,6.32,0,0,1,.94,3.45,7.53,7.53,0,0,1-.73,3.18,9.89,9.89,0,0,1-1.67,2.66,16.13,16.13,0,0,1-2.25,2,25.24,25.24,0,0,1-2.14,1.46l-1.61.83a.41.41,0,0,0-.27.63,63.19,63.19,0,0,0,2.56,7.1,38.18,38.18,0,0,0,2.77,5.48c.17.28.35.54.52.78a7.36,7.36,0,0,0,.52.57,3.38,3.38,0,0,1,.52.42,2.77,2.77,0,0,0,.58.26,2.13,2.13,0,0,1,.47.21,3,3,0,0,0,.47.11h1.41a1.66,1.66,0,0,1,0,1.46,15.92,15.92,0,0,1-3,.26,6.66,6.66,0,0,1-5.69-3.39q-2.24-3.41-5.11-12.32c-.18-.49-.94-.73-2.3-.73a8.47,8.47,0,0,0-2.14.16c-.31.06-.5.31-.57.73l-1.51,8.09a24.35,24.35,0,0,0-.58,4.69c0,.28.23.54.68.78a5.89,5.89,0,0,0,1.41.42l.73.11c.07,0,.1.07.1.2a2.61,2.61,0,0,1-.31,1.2c-3.23-.17-5-.26-5.43-.26l-5.74.26c-.07-.06-.1-.2-.1-.41q0-1,.36-1a8.54,8.54,0,0,0,1.88-.32c.84-.24,1.32-.52,1.46-.83a33.48,33.48,0,0,0,1.36-5l4.28-21.61a14.07,14.07,0,0,0,.26-2.61c0-.41-.35-.73-1-.94a5.55,5.55,0,0,0-1.72-.36c-.07,0-.11-.12-.11-.37a1.19,1.19,0,0,1,.37-1c1.49.1,3.3.16,5.42.16q1.47,0,3.24-.06C1724.65,114.66,1725.74,114.62,1726.72,114.62Z"/><path class="cls-2" d="M1754.11,126.26a5.65,5.65,0,0,1,4.75,2.14,9.12,9.12,0,0,1,1.72,5.89,16.1,16.1,0,0,1-3.8,10.18q-3.77,4.75-7.73,4.75a5.84,5.84,0,0,1-4.8-2,9.07,9.07,0,0,1-1.62-5.79,16.56,16.56,0,0,1,3.76-10.28Q1750.16,126.26,1754.11,126.26Zm-.62,2.14c-1.74,0-3.33,1.37-4.75,4.12a17.39,17.39,0,0,0-2.14,8.19,9.63,9.63,0,0,0,.94,4.7,2.87,2.87,0,0,0,2.45,1.67q2.61,0,4.59-4.07a18.54,18.54,0,0,0,2-8.3,10.4,10.4,0,0,0-.84-4.69A2.53,2.53,0,0,0,1753.49,128.4Z"/><path class="cls-2" d="M1777.7,126.26a5.66,5.66,0,0,1,4.75,2.14,9.12,9.12,0,0,1,1.72,5.89,16.11,16.11,0,0,1-3.81,10.18q-3.75,4.75-7.72,4.75a5.84,5.84,0,0,1-4.8-2,9.07,9.07,0,0,1-1.62-5.79,16.5,16.5,0,0,1,3.76-10.28Q1773.73,126.26,1777.7,126.26Zm-.62,2.14c-1.74,0-3.33,1.37-4.75,4.12a17.39,17.39,0,0,0-2.14,8.19,9.63,9.63,0,0,0,.94,4.7,2.86,2.86,0,0,0,2.45,1.67q2.61,0,4.59-4.07a18.54,18.54,0,0,0,2-8.3,10.4,10.4,0,0,0-.84-4.69A2.53,2.53,0,0,0,1777.08,128.4Z"/><path class="cls-2" d="M1796.12,120.67c.11-.34,1-.52,2.56-.52a7,7,0,0,1,.94,0l-1.31,6.84h4.75c.18,0,.26.23.26.68a3.27,3.27,0,0,1-.47,1.51h-4.95l-2.77,14.2a5.51,5.51,0,0,0-.15,1.3c0,.87.17,1.31.52,1.31a1.4,1.4,0,0,0,.73-.27,5.43,5.43,0,0,0,.88-.72c.32-.28.6-.54.84-.79s.47-.52.68-.73l.31-.36c.07,0,.19.17.37.52a1.6,1.6,0,0,1,.31.68,14.46,14.46,0,0,1-2.82,3,6.11,6.11,0,0,1-3.76,1.88,1.46,1.46,0,0,1-1.3-.73,3.82,3.82,0,0,1-.47-2,16.54,16.54,0,0,1,.37-2.77l2.81-14.56h-3.7c-.11,0-.16-.19-.16-.57a3.09,3.09,0,0,1,.63-1.62h3.65Z"/><path class="cls-2" d="M1815.9,128.4q-2.45,0-4.64,3.55t-2.14,5.42a.19.19,0,0,0,.21.21q1.88,0,4.85-2.5t3-5.12C1817.21,128.92,1816.77,128.4,1815.9,128.4Zm.52-2.14a4.28,4.28,0,0,1,3.45,1.25,3.86,3.86,0,0,1,1.09,2.66,6.37,6.37,0,0,1-2.35,4.54,18,18,0,0,1-5.16,3.5,12,12,0,0,1-4.49,1.2q-.21,0-.21,1.83a6.21,6.21,0,0,0,.89,3.6,3,3,0,0,0,2.5,1.2,2.9,2.9,0,0,0,.79-.11,4.46,4.46,0,0,0,.78-.26l.73-.31a5.46,5.46,0,0,0,.68-.47l.57-.47a3,3,0,0,0,.52-.42,2.38,2.38,0,0,0,.37-.42l.26-.26.16-.15c.07,0,.19.17.36.52a1.53,1.53,0,0,1,.32.68,13.58,13.58,0,0,1-2.93,3.08,6.83,6.83,0,0,1-4.33,1.82,4.76,4.76,0,0,1-4.17-2.09,10.49,10.49,0,0,1-1.41-5.84,16.52,16.52,0,0,1,3.81-10Q1812.46,126.25,1816.42,126.26Z"/><path class="cls-2" d="M1839.91,131.16a2.36,2.36,0,0,0-.21-1.72,1.47,1.47,0,0,0-1.41-.78q-3.18,0-6.11,4a14.17,14.17,0,0,0-2.87,8.45c0,3.38.89,5.06,2.66,5.06q1.93,0,4.23-3.81a24.55,24.55,0,0,0,3.08-7.82Zm.36-4.9h.68l1.46-7.78a6.53,6.53,0,0,0,.16-1.46c0-.66-1.06-1-3.19-1-.1,0-.15-.1-.15-.31a1.42,1.42,0,0,1,.42-1,25.89,25.89,0,0,0,6.73-1.46c.21.14.31.47.31,1l-.78,3.92L1841,143.43a5.51,5.51,0,0,0-.15,1.3c0,.87.17,1.31.52,1.31a1.47,1.47,0,0,0,.73-.26,6.13,6.13,0,0,0,.89-.74c.31-.27.59-.53.83-.78s.47-.52.68-.73l.31-.36c.07,0,.19.17.37.52a1.48,1.48,0,0,1,.31.68,14.46,14.46,0,0,1-2.82,3,6.15,6.15,0,0,1-3.75,1.88,1.47,1.47,0,0,1-1.31-.73,3.82,3.82,0,0,1-.47-2,16.54,16.54,0,0,1,.37-2.77c.06-.28.12-.5.15-.68a1.7,1.7,0,0,1,.11-.41,1.19,1.19,0,0,0,0-.32,26.24,26.24,0,0,1-1.62,2.51,15.5,15.5,0,0,1-2.61,2.82,5,5,0,0,1-3.13,1.51,4.14,4.14,0,0,1-3.7-2,9.26,9.26,0,0,1-1.31-5q0-5.62,4.8-10.75T1840.27,126.26Z"/><path class="cls-2" d="M1871.79,115.25a1.66,1.66,0,0,1,1.31.62,2.12,2.12,0,0,1,.57,1.46,3.2,3.2,0,0,1-.84,2.2,2.48,2.48,0,0,1-2,.94,1.52,1.52,0,0,1-1.3-.63,2.72,2.72,0,0,1-.47-1.62,3,3,0,0,1,.78-2.08A2.45,2.45,0,0,1,1871.79,115.25Zm-1.51,11a1.45,1.45,0,0,1,1.3.78,3.47,3.47,0,0,1,.47,1.93,15.5,15.5,0,0,1-.31,2.77l-2.3,11.69a5.51,5.51,0,0,0-.15,1.3c0,.87.17,1.31.52,1.31a1.47,1.47,0,0,0,.73-.26,6.13,6.13,0,0,0,.89-.74c.31-.27.59-.53.83-.78s.47-.52.68-.73l.31-.36c.07,0,.19.17.37.52a1.48,1.48,0,0,1,.31.68,14.46,14.46,0,0,1-2.82,3,6.15,6.15,0,0,1-3.75,1.88,1.47,1.47,0,0,1-1.31-.73,3.82,3.82,0,0,1-.47-2,16.54,16.54,0,0,1,.37-2.77l2.14-10.9a18.52,18.52,0,0,0,.26-2.09c0-.87-.18-1.31-.52-1.31a1.16,1.16,0,0,0-.58.26,5.57,5.57,0,0,0-.78.58l-.68.68a8,8,0,0,0-.57.62l-.27.32c-.06,0-.2-.16-.41-.47a1.91,1.91,0,0,1-.26-.73,13,13,0,0,1,2.61-2.77A5.8,5.8,0,0,1,1870.28,126.26Z"/><path class="cls-2" d="M1885.83,126.26a1.44,1.44,0,0,1,1.3.78,3.47,3.47,0,0,1,.47,1.93,14.78,14.78,0,0,1-.31,2.77l-.94,4.8a35.58,35.58,0,0,1,2.24-3.24,39.94,39.94,0,0,1,4.28-4.64c1.71-1.6,3.08-2.4,4.13-2.4q2.61,0,2.61,3.44a27.22,27.22,0,0,1-.74,5.69l-1.72,8a5.51,5.51,0,0,0-.15,1.3c0,.87.17,1.31.52,1.31a1.47,1.47,0,0,0,.73-.26,6.13,6.13,0,0,0,.89-.74c.31-.27.59-.53.83-.78s.47-.52.68-.73l.31-.36c.07,0,.19.17.37.52a1.48,1.48,0,0,1,.31.68,14.46,14.46,0,0,1-2.82,3,6.15,6.15,0,0,1-3.75,1.88,1.48,1.48,0,0,1-1.31-.73,3.82,3.82,0,0,1-.47-2,16.54,16.54,0,0,1,.37-2.77l1.82-8.61a13.8,13.8,0,0,0,.37-2.82c0-1.49-.33-2.24-1-2.24q-1.72,0-5.38,4.75a23.83,23.83,0,0,0-4.64,10L1884,149a5.49,5.49,0,0,1-1.62.21,7.27,7.27,0,0,1-1.77-.21l3.08-16.07c.17-1.26.26-1.95.26-2.09,0-.87-.17-1.31-.52-1.31a1.2,1.2,0,0,0-.58.26,5.57,5.57,0,0,0-.78.58l-.68.68a8,8,0,0,0-.57.62c-.18.21-.26.32-.26.32s-.21-.16-.42-.47a1.91,1.91,0,0,1-.26-.73,13.52,13.52,0,0,1,2.61-2.77A5.8,5.8,0,0,1,1885.83,126.26Z"/><path class="cls-2" d="M1937.44,114.15q3.55,0,11.12,2.35-.94,5.94-1,6.47c-.1.52-.52.78-1.25.78a.81.81,0,0,1-.57-.15q0-.8-.06-1.41a7.1,7.1,0,0,0-.52-1.83,5.34,5.34,0,0,0-1.3-2,6.94,6.94,0,0,0-2.51-1.41,12,12,0,0,0-4.12-.63q-5.37,0-10,5.74a20.6,20.6,0,0,0-4.64,13.36,12.6,12.6,0,0,0,2.71,8.3,9.4,9.4,0,0,0,7.67,3.29,12.1,12.1,0,0,0,6.58-1.72,9.33,9.33,0,0,0,2.24-1.88,12.94,12.94,0,0,0,1.41-1.78,3.79,3.79,0,0,1,.52-.68c.1,0,.31.2.63.58s.45.59.41.73q-2.34,4.49-2.61,4.75c-.52.59-1.87,1.11-4.06,1.56a32.3,32.3,0,0,1-6.63.68,12.53,12.53,0,0,1-9.92-4.23,14.81,14.81,0,0,1-3.7-10,18.82,18.82,0,0,1,1.51-7.14,26.22,26.22,0,0,1,4.12-6.74,20.3,20.3,0,0,1,6.27-5A16.44,16.44,0,0,1,1937.44,114.15Z"/><path class="cls-2" d="M1961.6,126.26a5.66,5.66,0,0,1,4.75,2.14,9.12,9.12,0,0,1,1.72,5.89,16.11,16.11,0,0,1-3.81,10.18q-3.75,4.75-7.72,4.75a5.84,5.84,0,0,1-4.8-2,9.07,9.07,0,0,1-1.62-5.79,16.5,16.5,0,0,1,3.76-10.28Q1957.63,126.26,1961.6,126.26Zm-.62,2.14c-1.74,0-3.33,1.37-4.75,4.12a17.39,17.39,0,0,0-2.14,8.19,9.63,9.63,0,0,0,.94,4.7,2.87,2.87,0,0,0,2.45,1.67q2.61,0,4.59-4.07a18.54,18.54,0,0,0,2-8.3,10.4,10.4,0,0,0-.84-4.69A2.53,2.53,0,0,0,1961,128.4Z"/><path class="cls-2" d="M1979.14,126.26a1.45,1.45,0,0,1,1.3.78,3.56,3.56,0,0,1,.47,1.93,14.78,14.78,0,0,1-.31,2.77l-.94,4.8a33.57,33.57,0,0,1,2.24-3.24,39.94,39.94,0,0,1,4.28-4.64q2.57-2.4,4.12-2.4,2.61,0,2.61,3.44a27.12,27.12,0,0,1-.73,5.69l-1.72,8a5.51,5.51,0,0,0-.15,1.3c0,.87.17,1.31.52,1.31a1.47,1.47,0,0,0,.73-.26,5.57,5.57,0,0,0,.88-.74,11,11,0,0,0,.84-.78c.24-.28.47-.52.68-.73l.31-.36c.07,0,.19.17.37.52a1.6,1.6,0,0,1,.31.68,14.46,14.46,0,0,1-2.82,3,6.17,6.17,0,0,1-3.76,1.88,1.46,1.46,0,0,1-1.3-.73,3.82,3.82,0,0,1-.47-2,16.54,16.54,0,0,1,.37-2.77l1.82-8.61a14.54,14.54,0,0,0,.37-2.82c0-1.49-.33-2.24-1-2.24q-1.71,0-5.37,4.75a24,24,0,0,0-4.65,10l-.88,4.07a5.49,5.49,0,0,1-1.62.21,7.16,7.16,0,0,1-1.77-.21l3.08-16.07c.17-1.26.26-1.95.26-2.09,0-.87-.18-1.31-.53-1.31a1.14,1.14,0,0,0-.57.26,5,5,0,0,0-.78.58c-.25.24-.47.47-.68.68a8,8,0,0,0-.57.62l-.27.32c-.07,0-.21-.16-.41-.47a2,2,0,0,1-.27-.73,13.36,13.36,0,0,1,2.62-2.77A5.8,5.8,0,0,1,1979.14,126.26Z"/><path class="cls-2" d="M2008.1,126.1a5.92,5.92,0,0,1,4.7,2,3,3,0,0,1,.26,1.1,2.56,2.56,0,0,1-.53,1.62,1.45,1.45,0,0,1-1.25.68,1.66,1.66,0,0,1-1.3-.73,9.55,9.55,0,0,0-1.46-1.57,3.18,3.18,0,0,0-2.25-.78,2.14,2.14,0,0,0-1.72.73,2.48,2.48,0,0,0-.63,1.67,5.56,5.56,0,0,0,1,2.92,18.89,18.89,0,0,0,2.24,2.71,14.17,14.17,0,0,1,2.19,2.93,6.61,6.61,0,0,1,1.05,3.49,5.82,5.82,0,0,1-2.09,4.65,8,8,0,0,1-5.38,1.77,5.88,5.88,0,0,1-4.69-2,1.79,1.79,0,0,1-.26-1,2.94,2.94,0,0,1,.47-1.67,1.53,1.53,0,0,1,1.3-.73,1.61,1.61,0,0,1,1.3.78,14.73,14.73,0,0,0,1.41,1.51,3.31,3.31,0,0,0,2.3.79,2.42,2.42,0,0,0,1.83-.73,2.47,2.47,0,0,0,.73-1.67,5.06,5.06,0,0,0-1-2.87,15.73,15.73,0,0,0-2.19-2.77,15.37,15.37,0,0,1-2.24-2.92,7,7,0,0,1-1-3.5,6.09,6.09,0,0,1,2.08-4.28A6.94,6.94,0,0,1,2008.1,126.1Z"/><path class="cls-2" d="M2027.57,128.4q-2.46,0-4.65,3.55t-2.14,5.42a.19.19,0,0,0,.21.21q1.88,0,4.85-2.5t3-5.12C2028.87,128.92,2028.43,128.4,2027.57,128.4Zm.52-2.14a4.25,4.25,0,0,1,3.44,1.25,3.87,3.87,0,0,1,1.1,2.66,6.41,6.41,0,0,1-2.35,4.54,18.17,18.17,0,0,1-5.17,3.5,12,12,0,0,1-4.49,1.2q-.21,0-.21,1.83a6.21,6.21,0,0,0,.89,3.6,3,3,0,0,0,2.51,1.2,2.77,2.77,0,0,0,.78-.11,4.46,4.46,0,0,0,.78-.26l.73-.31a4.81,4.81,0,0,0,.68-.47l.58-.47a3.38,3.38,0,0,0,.52-.42,2.71,2.71,0,0,0,.36-.42l.26-.26.16-.15c.07,0,.19.17.36.52a1.53,1.53,0,0,1,.32.68,13.48,13.48,0,0,1-2.92,3.08,6.85,6.85,0,0,1-4.34,1.82,4.78,4.78,0,0,1-4.17-2.09,10.49,10.49,0,0,1-1.41-5.84,16.52,16.52,0,0,1,3.81-10Q2024.12,126.25,2028.09,126.26Z"/><path class="cls-2" d="M2044.11,126.26a1.45,1.45,0,0,1,1.3.78,3.47,3.47,0,0,1,.47,1.93,14.78,14.78,0,0,1-.31,2.77l-.84,4.38a30.9,30.9,0,0,1,3.87-6.47c1.73-2.26,3.2-3.39,4.38-3.39a3.3,3.3,0,0,1,2.87,1.67c0,2.33-.64,3.49-1.93,3.49a1.5,1.5,0,0,1-1-.62,1.64,1.64,0,0,0-1.2-.68c-1,0-2.53,1.51-4.54,4.54a24.07,24.07,0,0,0-3.76,8.82l-1,5.48a10.39,10.39,0,0,1-1.72.16,12.29,12.29,0,0,1-1.94-.16l3.14-16.07c.17-1.26.26-1.95.26-2.09,0-.87-.18-1.31-.53-1.31a1.17,1.17,0,0,0-.57.26,5.57,5.57,0,0,0-.78.58l-.68.68a8,8,0,0,0-.57.62l-.27.32c-.06,0-.21-.16-.41-.47a1.91,1.91,0,0,1-.26-.73,13,13,0,0,1,2.61-2.77A5.8,5.8,0,0,1,2044.11,126.26Z"/><path class="cls-2" d="M2064.51,126.26a1.47,1.47,0,0,1,1.31.78,3.56,3.56,0,0,1,.47,1.93,15.66,15.66,0,0,1-.32,2.77l-1.56,8A25.82,25.82,0,0,0,2064,143a3.6,3.6,0,0,0,.47,2.09,2,2,0,0,0,1.67.62q2.4,0,5.58-4.74c2.16-3.21,3.24-5.92,3.24-8.15a4.51,4.51,0,0,0-.78-2.35,4.28,4.28,0,0,1-.73-1.87,2.28,2.28,0,0,1,.62-1.62,1.92,1.92,0,0,1,1.51-.73,3.09,3.09,0,0,1,1.67.42,6.22,6.22,0,0,1,.74,3,18.67,18.67,0,0,1-2.56,9,26.4,26.4,0,0,1-5.74,7.46q-3.24,2.82-5.53,2.82a3.48,3.48,0,0,1-2.82-1.25,5.17,5.17,0,0,1-1-3.34,10,10,0,0,1,.2-2.3l1.78-9.18a7.62,7.62,0,0,0,.31-2.09c0-.87-.17-1.31-.52-1.31a1.14,1.14,0,0,0-.57.26,5.08,5.08,0,0,0-.79.58l-.68.68a8,8,0,0,0-.57.62l-.26.32c-.07,0-.21-.16-.42-.47a2.12,2.12,0,0,1-.26-.73,13.52,13.52,0,0,1,2.61-2.77A5.86,5.86,0,0,1,2064.51,126.26Z"/><path class="cls-2" d="M2094,128.66q-3.09,0-6,4a14.09,14.09,0,0,0-2.87,8.4q0,5.11,2.66,5.11,1.89,0,4.18-3.81a23.53,23.53,0,0,0,3.13-7.72l1-5.32A2.76,2.76,0,0,0,2094,128.66Zm2.19-2.4a10.7,10.7,0,0,1,3.81.68l-3.19,16.49a5.51,5.51,0,0,0-.15,1.3c0,.87.17,1.31.52,1.31a1.47,1.47,0,0,0,.73-.26,6.13,6.13,0,0,0,.89-.74c.31-.27.59-.53.83-.78s.47-.52.68-.73l.31-.36c.07,0,.19.17.37.52a1.48,1.48,0,0,1,.31.68,14.46,14.46,0,0,1-2.82,3,6.14,6.14,0,0,1-3.76,1.88,1.46,1.46,0,0,1-1.3-.73,3.82,3.82,0,0,1-.47-2,15.71,15.71,0,0,1,.37-2.77c.07-.38.12-.68.15-.88a2.83,2.83,0,0,0,.11-.47c-.35.62-.75,1.27-1.2,1.93s-1,1.34-1.73,2.14a10.59,10.59,0,0,1-2.24,2,4.1,4.1,0,0,1-2.19.73,4.18,4.18,0,0,1-3.65-2,9.26,9.26,0,0,1-1.31-5,14.45,14.45,0,0,1,2.19-7.41,19,19,0,0,1,5.74-6.1A12.29,12.29,0,0,1,2096.14,126.26Z"/><path class="cls-2" d="M2112.68,120.67c.1-.34,1-.52,2.56-.52a7.11,7.11,0,0,1,.94,0l-1.31,6.84h4.75c.17,0,.26.23.26.68a3.39,3.39,0,0,1-.47,1.51h-5l-2.76,14.2a5,5,0,0,0-.16,1.3c0,.87.18,1.31.52,1.31a1.4,1.4,0,0,0,.73-.27,5.5,5.5,0,0,0,.89-.72c.31-.28.59-.54.84-.79s.46-.52.67-.73l.32-.36c.07,0,.19.17.36.52a1.53,1.53,0,0,1,.32.68,15,15,0,0,1-2.82,3,6.11,6.11,0,0,1-3.76,1.88,1.48,1.48,0,0,1-1.31-.73,3.82,3.82,0,0,1-.46-2,17.36,17.36,0,0,1,.36-2.77l2.82-14.56h-3.71q-.15,0-.15-.57a3.15,3.15,0,0,1,.62-1.62h3.66Z"/><path class="cls-2" d="M2130.11,115.25a1.64,1.64,0,0,1,1.3.62,2.08,2.08,0,0,1,.58,1.46,3.2,3.2,0,0,1-.84,2.2,2.48,2.48,0,0,1-2,.94,1.52,1.52,0,0,1-1.3-.63,2.72,2.72,0,0,1-.48-1.62,3,3,0,0,1,.79-2.08A2.44,2.44,0,0,1,2130.11,115.25Zm-1.51,11a1.45,1.45,0,0,1,1.3.78,3.56,3.56,0,0,1,.47,1.93,15.5,15.5,0,0,1-.31,2.77l-2.3,11.69a5.51,5.51,0,0,0-.16,1.3c0,.87.18,1.31.53,1.31a1.5,1.5,0,0,0,.73-.26,5.57,5.57,0,0,0,.88-.74,11,11,0,0,0,.84-.78c.24-.28.47-.52.68-.73l.31-.36c.07,0,.19.17.36.52a1.53,1.53,0,0,1,.32.68,14.46,14.46,0,0,1-2.82,3,6.17,6.17,0,0,1-3.76,1.88,1.46,1.46,0,0,1-1.3-.73,3.72,3.72,0,0,1-.47-2,17.36,17.36,0,0,1,.36-2.77l2.14-10.9a16.32,16.32,0,0,0,.26-2.09c0-.87-.17-1.31-.52-1.31a1.14,1.14,0,0,0-.57.26,5,5,0,0,0-.78.58c-.25.24-.47.47-.68.68s-.4.41-.58.62l-.26.32c-.07,0-.21-.16-.42-.47a2.12,2.12,0,0,1-.26-.73,13.52,13.52,0,0,1,2.61-2.77A5.85,5.85,0,0,1,2128.6,126.26Z"/><path class="cls-2" d="M2148.74,126.26a5.68,5.68,0,0,1,4.75,2.14,9.12,9.12,0,0,1,1.72,5.89,16.11,16.11,0,0,1-3.81,10.18q-3.75,4.75-7.72,4.75a5.84,5.84,0,0,1-4.8-2,9.07,9.07,0,0,1-1.62-5.79,16.5,16.5,0,0,1,3.76-10.28Q2144.77,126.26,2148.74,126.26Zm-.63,2.14q-2.61,0-4.75,4.12a17.5,17.5,0,0,0-2.14,8.19,9.75,9.75,0,0,0,.94,4.7,2.87,2.87,0,0,0,2.46,1.67q2.61,0,4.59-4.07a18.53,18.53,0,0,0,2-8.3,10.55,10.55,0,0,0-.83-4.69A2.55,2.55,0,0,0,2148.11,128.4Z"/><path class="cls-2" d="M2166.27,126.26a1.47,1.47,0,0,1,1.31.78,3.56,3.56,0,0,1,.47,1.93,14.89,14.89,0,0,1-.32,2.77l-.94,4.8a34.25,34.25,0,0,1,2.25-3.24,39.08,39.08,0,0,1,4.28-4.64c1.7-1.6,3.08-2.4,4.12-2.4q2.61,0,2.61,3.44a27.12,27.12,0,0,1-.73,5.69l-1.72,8a5,5,0,0,0-.16,1.3c0,.87.18,1.31.52,1.31a1.44,1.44,0,0,0,.73-.26,5.64,5.64,0,0,0,.89-.74q.47-.4.84-.78c.24-.28.46-.52.67-.73l.32-.36c.07,0,.19.17.36.52a1.53,1.53,0,0,1,.32.68,15,15,0,0,1-2.82,3,6.17,6.17,0,0,1-3.76,1.88,1.45,1.45,0,0,1-1.3-.73,3.72,3.72,0,0,1-.47-2,17.36,17.36,0,0,1,.36-2.77l1.83-8.61a14.4,14.4,0,0,0,.36-2.82c0-1.49-.33-2.24-1-2.24q-1.73,0-5.37,4.75a24,24,0,0,0-4.65,10l-.89,4.07a5.47,5.47,0,0,1-1.61.21A7.3,7.3,0,0,1,2161,149l3.08-16.07c.18-1.26.26-1.95.26-2.09,0-.87-.17-1.31-.52-1.31a1.14,1.14,0,0,0-.57.26,5.08,5.08,0,0,0-.79.58l-.68.68c-.2.21-.39.41-.57.62l-.26.32c-.07,0-.21-.16-.42-.47a2.12,2.12,0,0,1-.26-.73,13.52,13.52,0,0,1,2.61-2.77A5.86,5.86,0,0,1,2166.27,126.26Z"/><path class="cls-2" d="M2001,405.74v.79h103.1v-.79c-17.81-4-29.29-15.83-29.29-35.62V205.69c-24.34,9.3-47.29,15.63-75.59,21.57v.79c17.81,3,27.11,13.06,27.11,37.2V370.12C2026.37,389.91,2016.87,401.78,2001,405.74Zm161-105.42-.32.18a4.43,4.43,0,0,0,1.51-2.42,8.9,8.9,0,0,0-.11-3.33c-2.13-12.2-8.35-25-15.72-34.91-6.59-8.9-15.72-16.65-27-18.22a31.65,31.65,0,0,0-5.15-.29,32.47,32.47,0,0,0-9.37,1.69l-.74.25a39.86,39.86,0,0,0-11,6c-.53.41-1.3,1-2.13,1.65a50.09,50.09,0,0,1,8-6.93c14-9.71,30.18-11,44.91-4,7.52,3.59,14,9.38,19.67,16.44A43.61,43.61,0,0,0,2147.91,233c-16.23-11.8-36.65-7.42-50.25,7.45-4.28,4.62-8.74,10.18-11,16.59-1.55-18.16,15.85-33.42,31.88-39.21,19.83-7.17,43.47,1.4,55.28,18.57C2187.74,256.66,2184.27,287.43,2162,300.32Z"/><path class="cls-2" d="M1089.48,227.06c17.81,3,27.11,13.06,27.11,37.2V370.12c0,19.79-9.49,31.66-25.32,35.62v.79h98.14v-.79c-15.83-4-25.32-15.83-25.32-35.62V204.7c-24.34,9.3-46.31,15.63-74.61,21.57Zm48.29-54.42a30.77,30.77,0,1,0-30.87-30.87A30.62,30.62,0,0,0,1137.77,172.64Z"/><path class="cls-2" d="M1413.76,235.57l.4.79c8.31-6.73,21.17-15.24,36.21-15.24,19.2,0,27.7,14,27.7,47.49,0,31.46-1.78,62.53-1.78,94,0,24.94,4.36,45.52,33.84,45.52,19.79,0,37.2-6.73,48.68-15.64l-.4-.79c-23.54,10.09-33.64-4.35-33.64-34.23,0-34.43,1.78-61.14,1.78-92,0-42.55-19.78-58.38-49.07-58.38C1450.37,207.07,1428.41,219.93,1413.76,235.57ZM1291.08,233l.4.8c6.53-4.16,19.39-12.67,34.43-12.67,18.4,0,27.5,15,27.5,47.49,0,31.46.4,62.14.4,101.51,0,19.79-9.5,31.66-25.33,35.62v.79h98.15v-.79c-15.83-4-25.33-15.83-25.33-35.62V265.45c0-42.55-19.79-58.38-49.08-58.38C1327.09,207.07,1303.94,219.93,1291.08,233Zm-90.83,172.75v.79h98.15v-.79c-15.83-4-25.33-15.83-25.33-35.62V205.69c-24.34,9.3-46.3,15.63-74.6,21.57v.79c17.81,3,27.11,13.06,27.11,37.2V370.12C1225.58,389.91,1216.08,401.78,1200.25,405.74Z"/><path class="cls-2" d="M898.12,120.4v-.79c-62.14-.79-94.59,19.39-94.59,66.88,0,33.84,16.23,61.15,16.23,87.27,0,13.84-4.64,22.74-13.33,27.86,15-5.6,28.46-15.23,31.68-31.29,1.59-7.26.64-14.81-.3-22.16-1-7.63-2.42-15.19-4.16-22.72-5.31-23-15.2-46.52-4.18-69.63a67.14,67.14,0,0,0-1.58,23c.81,7.6,3.05,14.95,5.4,22.36,5,14.88,9.7,30.29,11.69,46,1.88,12.21,1.92,25.55-5,36.38-10.91,17.4-34,23.83-53.51,23.44v.74c38.79,4,81.13-21.76,81.13-62.33,0-27.31-19-57-19-88.45C848.65,135.44,857.75,122.38,898.12,120.4Z"/><path class="cls-2" d="M1068.69,118.22l-.79-.39c-15.24,3-46.9,3.36-71.83,1.78v.79c30.86,11.68,57.18,49.67,75,111.41l.79-.4C1066.31,172.25,1066.11,139,1068.69,118.22Z"/><path class="cls-2" d="M972.91,369.93V148.3c0-17.81,1.39-25.92,3.37-27.9v-.79H919.09v.79c2,2,3.36,10.09,3.36,27.9V369.93c0,19.78-9.3,31.85-25.13,35.81v.79H998v-.79C982.21,401.78,972.91,389.71,972.91,369.93Z"/><path class="cls-2" d="M1631.66,380V89.93c-24.34,9.3-46.31,15.63-74.61,21.57v.79c17.81,3,27.11,13.06,27.11,37.2V370.12c0,19.79-9.49,31.66-25.32,35.62v.79h82.31v-.79C1635.22,401.78,1631.66,393.87,1631.66,380Z"/><path class="cls-2" d="M1649.86,397.43c6.73,4.16,18.2,10.09,38.39,10.09,54.61,0,87.26-43.93,87.26-105.07,0-58.57-32.25-94.78-74.2-94.78-21.17,0-39.18,9.3-49.87,21.37l.4.79c6.53-5.54,14.84-10.89,25.13-10.89,26.32,0,45.51,34.63,45.51,84.3,0,48.68-18.8,96.76-56.39,96.76a37.7,37.7,0,0,1-15.62-3.27c9.8-11,26.33-28.42,34.62-39.64,11.28-14.83,20.82-31.11,26.94-49.17l-.33-.06c-16.29,14.37-33.33,29.58-46.91,46.28-2.28,2.54-4.25,5.38-6.57,7.91.42-1.68.94-3.34,1.48-5,7.55-21.49,27.45-40.87,48.89-49.72-21.4-3-42.69,8.29-55.71,25.14-14.11,17.86-19.16,46.7-3,64.95"/><path class="cls-2" d="M1916.39,401.39c-42,0-62.72-41.75-63.12-98.55-.2-49.66,16.62-90.62,38.79-95v-.79c-54.22,2-93.21,46.31-91.82,106.86,1.38,59.56,41.75,93.79,99.14,94.19,55,.39,79.15-35,84.09-52.24l-.79-.2C1974,376.46,1948.65,401.39,1916.39,401.39Z"/><path class="cls-2" d="M1920.51,241.59a28.4,28.4,0,0,0-6.7-12.1l-15.63,16.57c-13.77,14.53-24.83,31-31,50.49,5.64-5.79,12.84-12.33,18.28-17.53,7.07-6.53,13.27-13.11,20.48-19.78-3.76,17.12-19.48,32.68-36.3,38.35a21.39,21.39,0,0,0,3.47.3h.29l113.88-1c-1.38-49.87-30.67-87.46-77.37-89.84v.79c14.85,5.54,25.73,26.32,26.32,52.05.36,22.55-7.6,31.55-48,35.88C1910,288.8,1926.72,264.68,1920.51,241.59Z"/><path class="cls-2" d="M690.63,272.07l-.27.82a10.56,10.56,0,0,0-1.16-6.7,21.18,21.18,0,0,0-5.49-5.76c-23.19-18.34-54.59-31.19-83.48-37.17-25.89-5.35-54.46-4.66-77.09,10.53a75.08,75.08,0,0,0-9.64,7.69,76.9,76.9,0,0,0-14,17.89c-.31.53-.61,1.07-.91,1.61a94.71,94.71,0,0,0-10.06,28.25c-.3,1.59-.75,3.82-1.18,6.33a121.14,121.14,0,0,1,3.16-25c9.44-39.5,36.21-67.6,73.65-78.46,19.1-5.56,39.85-5.57,61.16-2a104.08,104.08,0,0,0-66.83-15.47c-47.66,4.78-77,45-77.62,93.15-.29,15,.61,32,6.76,47C456,285,462.72,230.13,482.05,194.33,506,150,561.68,127.72,610,139.53,667,153.46,709.75,213.77,690.63,272.07Z"/><path class="cls-2" d="M443.53,430.91l1.85.4c33.43-144.5,2.86-230.45-107.89-254.59-78.91-17.2-150.85,6.75-211.76-6.53C93.44,163.15,75,147.82,67.52,125c5.44,37.81,21,74.11,56.88,89.79,16.1,7.4,34.21,9,51.82,10.56,18.3,1.56,36.66,2.09,55.11,1.85,56.4-.68,116.2-11.79,164.51,25.65-17-8-34.77-13.69-52.94-15.39-18.13-2-36.42-.49-54.9,1.22-37.24,4.14-75.55,7.24-113.22,3.86-29.44-1.8-60.58-8.51-82.34-30.05-35-34.28-38.29-91.31-27.45-136.7l-1.73-.38c-28.95,88.44,9.51,200.27,104.11,220.9,63.69,13.88,142.57-15.33,215.94.67C433.61,307.89,459.44,335.76,443.53,430.91Z"/><path class="cls-2" d="M431.27,145.56a42.35,42.35,0,1,0-42.49-42.49A42.13,42.13,0,0,0,431.27,145.56Z"/></g><g id="pattern"><g class="cls-3"><path class="cls-4" d="M1013.71,114.68A170.71,170.71,0,0,0,970.5,96.55a194.7,194.7,0,0,0-62.26-6.61c-125,7-214.57,132.63-176.63,253.45a191.14,191.14,0,0,0,31.75,60.84c3.71-23.59,16.3-50,34.11-64.84-1.32,21.73-12.32,49.91-24.39,69.44,2.14-.48,4.29-1,6.3-1.52,11.74-2.95,23.56-6.36,34.79-9.77,8.94-2.79,18.64-5.85,27.23-8.86,39.14-13.91,71-26.66,100.36-51.52,47.47-41.14,60.46-102.59,70.18-164.39,2.67-18,4.91-36.41,6.75-54.79C1017.42,117,1015,115.53,1013.71,114.68Z"/><path class="cls-4" d="M1028.74,224.18A170.08,170.08,0,0,0,1072,242.32a194.67,194.67,0,0,0,62.26,6.61c125-7,214.56-132.64,176.63-253.45a191.26,191.26,0,0,0-31.76-60.84c-3.7,23.59-16.3,50-34.11,64.84,1.32-21.73,12.33-49.91,24.39-69.44-2.14.48-4.28,1-6.3,1.51-11.73,3-23.56,6.36-34.79,9.77-8.94,2.8-18.64,5.86-27.23,8.87-39.14,13.91-71,26.66-100.35,51.52-47.48,41.14-60.47,102.59-70.19,164.39-2.67,18-4.9,36.41-6.74,54.79C1025,221.84,1027.44,223.34,1028.74,224.18Z"/><path class="cls-4" d="M1205.48,298.84a170.3,170.3,0,0,0-43.22-18.14,194.6,194.6,0,0,0-62.25-6.61c-125,7-214.57,132.63-176.63,253.45a191.14,191.14,0,0,0,31.75,60.84c3.7-23.59,16.3-50,34.11-64.84-1.32,21.73-12.33,49.91-24.39,69.44,2.14-.48,4.29-1,6.3-1.51,11.74-3,23.56-6.36,34.79-9.78,8.94-2.79,18.64-5.85,27.23-8.86,39.14-13.91,71-26.66,100.36-51.52,47.47-41.14,60.46-102.59,70.18-164.39,2.67-18,4.91-36.41,6.74-54.79C1209.19,301.18,1206.78,299.68,1205.48,298.84Z"/><path class="cls-4" d="M1220.51,408.33a170.08,170.08,0,0,0,43.21,18.14,194.6,194.6,0,0,0,62.25,6.61c125-7,214.57-132.64,176.64-253.45a191.37,191.37,0,0,0-31.76-60.84c-3.7,23.59-16.3,50-34.11,64.84,1.32-21.73,12.33-49.91,24.39-69.44-2.14.48-4.28,1-6.3,1.51-11.73,3-23.56,6.36-34.79,9.78-8.94,2.79-18.64,5.85-27.23,8.86-39.14,13.91-71,26.66-100.35,51.52C1245,227,1232,288.45,1222.27,350.25c-2.67,18-4.9,36.41-6.74,54.79C1216.79,406,1219.21,407.49,1220.51,408.33Z"/><path class="cls-4" d="M1620.74-191.51a170.2,170.2,0,0,0-43.21-18.13,194.39,194.39,0,0,0-62.26-6.62c-125,7-214.57,132.64-176.63,253.46A191.12,191.12,0,0,0,1370.4,98c3.7-23.59,16.29-50,34.11-64.83-1.33,21.72-12.33,49.9-24.39,69.44,2.14-.49,4.28-1,6.3-1.52,11.73-3,23.56-6.36,34.79-9.77,8.93-2.8,18.63-5.86,27.22-8.87,39.14-13.9,71-26.66,100.36-51.51,47.48-41.15,60.47-102.59,70.19-164.39,2.67-18,4.9-36.42,6.74-54.79C1624.46-189.17,1622-190.66,1620.74-191.51Z"/><path class="cls-4" d="M1823.27-4a170.71,170.71,0,0,0-43.21-18.13,194.67,194.67,0,0,0-62.26-6.62c-125,7-214.57,132.64-176.63,253.46a191.12,191.12,0,0,0,31.76,60.83c3.7-23.58,16.29-50,34.11-64.83-1.33,21.72-12.33,49.9-24.4,69.44,2.15-.49,4.29-1,6.31-1.52,11.73-2.95,23.56-6.36,34.79-9.77,8.93-2.8,18.63-5.86,27.22-8.86,39.14-13.91,71-26.67,100.36-51.52,47.48-41.14,60.47-102.59,70.18-164.39,2.68-18,4.91-36.42,6.75-54.79C1827-1.71,1824.57-3.2,1823.27-4Z"/><path class="cls-4" d="M1838.3,105.45a170.71,170.71,0,0,0,43.21,18.13,194.67,194.67,0,0,0,62.26,6.62c125-7,214.57-132.64,176.63-253.46a191.12,191.12,0,0,0-31.76-60.83c-3.7,23.59-16.29,50-34.11,64.83,1.33-21.72,12.33-49.9,24.4-69.44-2.15.49-4.29,1-6.31,1.52-11.73,3-23.56,6.36-34.78,9.77-8.94,2.8-18.64,5.86-27.23,8.86-39.14,13.91-71,26.67-100.36,51.52-47.48,41.15-60.46,102.59-70.18,164.39-2.68,18-4.91,36.42-6.75,54.79C1834.59,103.11,1837,104.6,1838.3,105.45Z"/><path class="cls-4" d="M2015,180.1A170.71,170.71,0,0,0,1971.83,162a194.7,194.7,0,0,0-62.26-6.62c-125,7-214.57,132.64-176.63,253.46a191.29,191.29,0,0,0,31.75,60.83c3.71-23.58,16.3-50,34.12-64.83-1.33,21.72-12.33,49.9-24.4,69.44,2.15-.49,4.29-1,6.3-1.52,11.74-3,23.56-6.36,34.79-9.77,8.94-2.8,18.64-5.86,27.23-8.86,39.14-13.91,71-26.67,100.36-51.52,47.47-41.14,60.46-102.59,70.18-164.39,2.67-18,4.91-36.42,6.75-54.79C2018.75,182.44,2016.34,181,2015,180.1Z"/><path class="cls-4" d="M2030.07,289.6a170.2,170.2,0,0,0,43.21,18.13,194.67,194.67,0,0,0,62.26,6.62c125-7,214.57-132.64,176.63-253.46A191.12,191.12,0,0,0,2280.41.06c-3.7,23.59-16.29,50-34.11,64.83,1.33-21.72,12.33-49.9,24.39-69.44-2.14.49-4.28,1-6.3,1.52-11.73,2.95-23.56,6.36-34.79,9.77-8.93,2.8-18.64,5.86-27.22,8.86-39.14,13.91-71,26.67-100.36,51.52-47.48,41.15-60.47,102.59-70.19,164.39-2.67,18-4.9,36.42-6.74,54.79C2026.35,287.26,2028.77,288.75,2030.07,289.6Z"/><path class="cls-4" d="M623.63-255.5a170.41,170.41,0,0,0-43.21-18.13,194.61,194.61,0,0,0-62.25-6.62c-125,7-214.57,132.64-176.64,253.46A191.32,191.32,0,0,0,373.29,34c3.7-23.58,16.3-50,34.11-64.83C406.08-9.06,395.07,19.11,383,38.65c2.14-.49,4.28-1,6.3-1.52,11.73-3,23.56-6.36,34.79-9.77,8.94-2.8,18.64-5.86,27.23-8.86C490.47,4.59,522.34-8.17,551.68-33c47.48-41.14,60.47-102.59,70.19-164.39,2.67-18,4.9-36.42,6.74-54.79C627.35-253.16,624.93-254.65,623.63-255.5Z"/><path class="cls-4" d="M815.4-71.35a170.56,170.56,0,0,0-43.21-18.13,194.38,194.38,0,0,0-62.26-6.61c-125,7-214.56,132.63-176.63,253.45a191.32,191.32,0,0,0,31.76,60.83c3.7-23.58,16.3-50,34.11-64.83-1.32,21.73-12.33,49.91-24.39,69.44,2.14-.49,4.28-1,6.3-1.52,11.73-2.95,23.56-6.36,34.79-9.77,8.94-2.8,18.64-5.86,27.22-8.86,39.15-13.91,71-26.67,100.36-51.52C790.93,110,803.92,48.54,813.64-13.26c2.67-18,4.9-36.42,6.74-54.79C819.12-69,816.7-70.5,815.4-71.35Z"/><path class="cls-4" d="M830.43,38.15a170.35,170.35,0,0,0,43.21,18.13A194.42,194.42,0,0,0,935.9,62.9c125.05-7,214.57-132.64,176.63-253.46a191.09,191.09,0,0,0-31.75-60.83c-3.71,23.59-16.3,50-34.11,64.83,1.32-21.72,12.32-49.9,24.39-69.44-2.14.49-4.29,1-6.3,1.52-11.74,2.95-23.56,6.36-34.79,9.77-8.94,2.8-18.64,5.86-27.23,8.86-39.14,13.91-71,26.67-100.36,51.52C854.91-143.18,841.92-81.74,832.2-19.94c-2.67,18-4.91,36.42-6.75,54.79C826.72,35.81,829.13,37.3,830.43,38.15Z"/></g><g class="cls-5"><path class="cls-4" d="M2195.53-255.5a170.41,170.41,0,0,0-43.21-18.13,194.61,194.61,0,0,0-62.25-6.62c-125.05,7-214.57,132.64-176.63,253.46A191.09,191.09,0,0,0,1945.19,34c3.7-23.58,16.3-50,34.11-64.83C1978-9.06,1967,19.11,1954.91,38.65c2.14-.49,4.29-1,6.3-1.52,11.74-3,23.56-6.36,34.79-9.77,8.94-2.8,18.64-5.86,27.23-8.86,39.14-13.91,71-26.67,100.36-51.52,47.47-41.14,60.46-102.59,70.18-164.39,2.67-18,4.9-36.42,6.74-54.79C2199.25-253.16,2196.84-254.65,2195.53-255.5Z"/><path class="cls-4" d="M2387.3-71.35a170.41,170.41,0,0,0-43.21-18.13,194.32,194.32,0,0,0-62.25-6.61c-125.05,7-214.57,132.63-176.64,253.45A191.32,191.32,0,0,0,2137,218.19c3.7-23.58,16.3-50,34.11-64.83-1.32,21.73-12.33,49.91-24.39,69.44,2.14-.49,4.28-1,6.3-1.52,11.73-2.95,23.56-6.36,34.79-9.77,8.94-2.8,18.64-5.86,27.23-8.86,39.14-13.91,71-26.67,100.35-51.52,47.48-41.14,60.47-102.59,70.19-164.39,2.67-18,4.9-36.42,6.74-54.79C2391-69,2388.6-70.5,2387.3-71.35Z"/></g></g></svg>