<?xml version="1.0" encoding="UTF-8"?>
<svg id="social_media" data-name="social media" xmlns="http://www.w3.org/2000/svg" viewBox="0 0 654.58 703.18">
  <defs>
    <style>
      .cls-1 {
        fill: #cfddca;
        stroke-width: 0px;
      }
    </style>
  </defs>
  <path class="cls-1" d="m312.39,334.73c-9.16,1.42-17.76,4.41-25.19,10.16-15.8,12.22-14.81,33.8,2.03,44.53,7.36,4.69,15.57,6.83,24.13,7.24,19.43.93,36.45-3.82,47.14-21.8,6.88-11.56,9.27-24.42,10.49-38.22-19.81-3.76-39.14-4.93-58.6-1.9Z"/>
  <path class="cls-1" d="m643.57,55.18c-29.88-18.01-62.58-30.94-95.6-39.94C503.3,3.01,456.45-1.91,410.24.67,133.59,16.08-64.46,292.86,19.47,559.02c15.18,48.1,38.64,93.98,70.25,134.01,8.19-51.96,36.06-110.16,75.47-142.83-2.93,47.86-27.27,109.94-53.97,152.97,4.74-1.07,9.48-2.19,13.94-3.34,25.96-6.5,52.12-14.01,76.97-21.52,19.77-6.17,41.24-12.91,60.24-19.52,86.59-30.64,157.1-58.74,222.03-113.49,105.03-90.64,133.77-226,155.27-362.15,5.91-39.62,10.85-80.22,14.92-120.7-2.8-2.1-8.14-5.4-11.01-7.26Zm-157.69,201.24c-10.78,2.99-21.32,5.92-32.15,8.93-2.14-6.03-3.99-11.85-6.25-17.51-18.05-45.28-51.94-70.38-99.59-77.61-26.01-3.95-51.86-2.94-77.23,4.37-36.13,10.42-61.93,33.2-75.39,68.08-21.27,55.09-21.5,111.23-1.63,166.63,16.23,45.25,50.48,69.73,97.55,76.65,26.5,3.89,52.95,3.28,78.61-5,26.54-8.57,47.88-24.2,59.92-50.1,13.52-29.06,4.69-61.18-20.92-78.83-1.35-.93-2.79-1.73-3.91-2.42-2.86,9.9-4.94,19.86-8.57,29.22-16.11,41.62-52.33,55.16-89.02,51.66-13.64-1.3-26.36-5.48-37.87-13.01-35.94-23.53-37.31-74.2-2.68-100.21,16.46-12.36,35.49-17.54,55.65-17.98,14.6-.32,29.24,1.05,43.87,1.66,1.12.05,2.25,0,3.39,0-1.55-21.12-15.44-37.08-35.68-40.87-13.34-2.5-26.81-2.66-39.1,3.63-7.36,3.77-13.64,9.65-21.19,15.15-7.91-5.32-17.14-11.52-26.74-17.97,8.24-12.42,18.78-21.82,32.07-27.8,26.1-11.76,52.76-12.16,79.07-1.28,25.96,10.73,39.01,32.12,44.79,58.61,1.2,5.51,1.87,11.17,2.38,16.79.29,3.19,1.47,4.84,4.48,6.22,20.82,9.52,38,23.31,49.06,43.76,18.9,34.95,13.78,80.27-12.88,112.34-24.24,29.16-55.79,45.23-93.04,50.43-28.81,4.02-57.5,3.37-85.81-3.83-52.06-13.24-86.96-45.78-106.02-95.54-14.2-37.09-17.33-75.8-14.66-115.05,2.22-32.68,9.2-64.24,25.41-93.16,23.93-42.72,60.91-66.83,108.57-75.2,32.44-5.69,64.78-4.76,96.51,4.41,53.6,15.49,87.97,51.06,106.03,103.22,1.09,3.14,2.01,6.34,2.97,9.53.13.44.02.96.02,2.09Z"/>
</svg>