<?xml version="1.0" encoding="UTF-8"?>
<svg id="social_media" data-name="social media" xmlns="http://www.w3.org/2000/svg" viewBox="0 0 654.58 703.18">
  <defs>
    <style>
      .cls-1 {
        fill: #cfddca;
        stroke-width: 0px;
      }
    </style>
  </defs>
  <circle class="cls-1" cx="312.6" cy="333.95" r="55.16" transform="translate(-144.58 318.86) rotate(-45)"/>
  <path class="cls-1" d="m429.23,217.33c-13.14-13.14-31.72-17.25-49.76-18.08-17.44-.8-22.69-.97-66.87-.97s-49.42.17-66.87.97c-18.05.83-36.52,4.84-49.76,18.08-13.02,13.02-17.27,31.88-18.08,49.76-.8,17.44-.97,22.69-.97,66.87s.17,49.42.97,66.87c.83,17.98,4.88,36.56,18.08,49.76,12.95,12.96,31.95,17.27,49.76,18.08,17.44.8,22.69.97,66.87.97s49.42-.17,66.87-.97c18.11-.83,36.49-4.81,49.76-18.08,13.06-13.06,17.27-31.81,18.08-49.76.8-17.44.97-22.69.97-66.87s-.17-49.42-.97-66.87c-.83-18.09-4.81-36.49-18.08-49.76Zm-116.62,201.6c-46.93,0-84.98-38.05-84.98-84.98s38.05-84.98,84.98-84.98,84.98,38.05,84.98,84.98-38.05,84.98-84.98,84.98Zm88.34-153.46c-10.97,0-19.86-8.89-19.86-19.86s8.89-19.86,19.86-19.86,19.86,8.89,19.86,19.86-8.89,19.86-19.86,19.86Z"/>
  <path class="cls-1" d="m643.57,55.18c-29.88-18.01-62.58-30.94-95.6-39.94C503.3,3.01,456.45-1.91,410.24.67,133.59,16.08-64.46,292.86,19.47,559.02c15.18,48.1,38.64,93.98,70.25,134.01,8.19-51.96,36.06-110.16,75.47-142.83-2.93,47.86-27.27,109.94-53.97,152.97,4.74-1.07,9.48-2.19,13.94-3.34,25.96-6.5,52.12-14.01,76.97-21.52,19.77-6.17,41.24-12.91,60.24-19.52,86.59-30.64,157.1-58.74,222.03-113.49,105.03-90.64,133.77-226,155.27-362.15,5.91-39.62,10.85-80.22,14.92-120.7-2.8-2.1-8.14-5.4-11.01-7.26Zm-166.47,347.01c-1.17,25.57-8.21,50.9-26.78,69.48-18.48,18.48-43.91,25.61-69.48,26.78-17.65.8-23.29.99-68.23.99s-50.58-.19-68.23-.99c-25.54-1.17-50.93-8.23-69.48-26.78-18.47-18.45-25.61-43.92-26.78-69.48-.8-17.65-.99-23.29-.99-68.23s.19-50.58.99-68.23c1.17-25.57,8.22-50.91,26.78-69.48,18.49-18.49,43.89-25.61,69.48-26.78,17.65-.8,23.29-.99,68.23-.99s50.58.19,68.23.99c25.5,1.16,50.96,8.26,69.48,26.78,18.48,18.48,25.61,43.89,26.78,69.48.8,17.65.99,23.29.99,68.23s-.19,50.58-.99,68.23Z"/>
</svg>