<?xml version="1.0" encoding="UTF-8"?>
<svg id="social_media" data-name="social media" xmlns="http://www.w3.org/2000/svg" viewBox="0 0 654.58 703.18">
  <defs>
    <style>
      .cls-1 {
        fill: #cfddca;
        stroke-width: 0px;
      }
    </style>
  </defs>
  <polygon class="cls-1" points="220.66 233.56 381.31 443.61 381.33 443.61 405.93 443.61 247.09 233.56 220.66 233.56"/>
  <path class="cls-1" d="m643.57,55.18c-29.88-18.01-62.58-30.94-95.6-39.94C503.3,3.01,456.45-1.91,410.24.67,133.59,16.08-64.46,292.86,19.47,559.02c15.18,48.1,38.64,93.98,70.25,134.01,8.19-51.96,36.06-110.16,75.47-142.83-2.93,47.86-27.27,109.94-53.97,152.97,4.74-1.07,9.48-2.19,13.94-3.34,25.96-6.5,52.12-14.01,76.97-21.52,19.77-6.17,41.24-12.91,60.24-19.52,86.59-30.64,157.1-58.74,222.03-113.49,105.03-90.64,133.77-226,155.27-362.15,5.91-39.62,10.85-80.22,14.92-120.7-2.8-2.1-8.14-5.4-11.01-7.26Zm-274.45,414.98l-70.03-91.5-80.05,91.5h-44.5l103.77-118.62-109.43-143.16h91.62l63.24,83.63,73.18-83.63h44.44l-97.04,110.88,114.15,150.9h-89.35Z"/>
</svg>